<?xml version="1.0" encoding="UTF-8"?>
<svg xmlns="http://www.w3.org/2000/svg" xmlns:xlink="http://www.w3.org/1999/xlink" width="391.76" height="62.96" viewBox="0 0 391.76 62.96">
<defs>
<clipPath id="clip-0">
<path clip-rule="nonzero" d="M 165 33 L 195 33 L 195 62.960938 L 165 62.960938 Z M 165 33 "/>
</clipPath>
<clipPath id="clip-1">
<path clip-rule="nonzero" d="M 191 20 L 224 20 L 224 62.960938 L 191 62.960938 Z M 191 20 "/>
</clipPath>
<clipPath id="clip-2">
<path clip-rule="nonzero" d="M 197 44 L 227 44 L 227 62.960938 L 197 62.960938 Z M 197 44 "/>
</clipPath>
<clipPath id="clip-3">
<path clip-rule="nonzero" d="M 290 0 L 391.761719 0 L 391.761719 62.960938 L 290 62.960938 Z M 290 0 "/>
</clipPath>
<clipPath id="clip-4">
<path clip-rule="nonzero" d="M 287 41 L 317 41 L 317 62.960938 L 287 62.960938 Z M 287 41 "/>
</clipPath>
<clipPath id="clip-5">
<path clip-rule="nonzero" d="M 373 0 L 391.761719 0 L 391.761719 21 L 373 21 Z M 373 0 "/>
</clipPath>
<clipPath id="clip-6">
<path clip-rule="nonzero" d="M 373 41 L 391.761719 41 L 391.761719 62.960938 L 373 62.960938 Z M 373 41 "/>
</clipPath>
</defs>
<path fill="none" stroke-width="0.79701" stroke-linecap="butt" stroke-linejoin="miter" stroke="rgb(0%, 0%, 0%)" stroke-opacity="1" stroke-miterlimit="10" d="M -0.0004375 -0.00065625 L 113.386281 -0.00065625 " transform="matrix(1, 0, 0, -1, 4.602, 31.347)"/>
<path fill-rule="nonzero" fill="rgb(75%, 75%, 75%)" fill-opacity="1" stroke-width="0.79701" stroke-linecap="butt" stroke-linejoin="miter" stroke="rgb(0%, 0%, 0%)" stroke-opacity="1" stroke-miterlimit="10" d="M 2.987844 -0.00065625 C 2.987844 1.651687 1.651906 2.987625 -0.0004375 2.987625 C -1.648875 2.987625 -2.988719 1.651687 -2.988719 -0.00065625 C -2.988719 -1.649094 -1.648875 -2.988938 -0.0004375 -2.988938 C 1.651906 -2.988938 2.987844 -1.649094 2.987844 -0.00065625 Z M 2.987844 -0.00065625 " transform="matrix(1, 0, 0, -1, 4.602, 31.347)"/>
<path fill-rule="nonzero" fill="rgb(75%, 75%, 75%)" fill-opacity="1" stroke-width="0.79701" stroke-linecap="butt" stroke-linejoin="miter" stroke="rgb(0%, 0%, 0%)" stroke-opacity="1" stroke-miterlimit="10" d="M 31.3355 -0.00065625 C 31.3355 1.651687 29.995656 2.987625 28.347219 2.987625 C 26.694875 2.987625 25.358938 1.651687 25.358938 -0.00065625 C 25.358938 -1.649094 26.694875 -2.988938 28.347219 -2.988938 C 29.995656 -2.988938 31.3355 -1.649094 31.3355 -0.00065625 Z M 31.3355 -0.00065625 " transform="matrix(1, 0, 0, -1, 4.602, 31.347)"/>
<path fill-rule="nonzero" fill="rgb(75%, 75%, 75%)" fill-opacity="1" stroke-width="0.79701" stroke-linecap="butt" stroke-linejoin="miter" stroke="rgb(0%, 0%, 0%)" stroke-opacity="1" stroke-miterlimit="10" d="M 59.683156 -0.00065625 C 59.683156 1.651687 58.343313 2.987625 56.694875 2.987625 C 55.042531 2.987625 53.706594 1.651687 53.706594 -0.00065625 C 53.706594 -1.649094 55.042531 -2.988938 56.694875 -2.988938 C 58.343313 -2.988938 59.683156 -1.649094 59.683156 -0.00065625 Z M 59.683156 -0.00065625 " transform="matrix(1, 0, 0, -1, 4.602, 31.347)"/>
<path fill-rule="nonzero" fill="rgb(75%, 75%, 75%)" fill-opacity="1" stroke-width="0.79701" stroke-linecap="butt" stroke-linejoin="miter" stroke="rgb(0%, 0%, 0%)" stroke-opacity="1" stroke-miterlimit="10" d="M 88.030812 -0.00065625 C 88.030812 1.651687 86.690969 2.987625 85.038625 2.987625 C 83.390187 2.987625 82.050344 1.651687 82.050344 -0.00065625 C 82.050344 -1.649094 83.390187 -2.988938 85.038625 -2.988938 C 86.690969 -2.988938 88.030812 -1.649094 88.030812 -0.00065625 Z M 88.030812 -0.00065625 " transform="matrix(1, 0, 0, -1, 4.602, 31.347)"/>
<path fill-rule="nonzero" fill="rgb(75%, 75%, 75%)" fill-opacity="1" stroke-width="0.79701" stroke-linecap="butt" stroke-linejoin="miter" stroke="rgb(0%, 0%, 0%)" stroke-opacity="1" stroke-miterlimit="10" d="M 116.374562 -0.00065625 C 116.374562 1.651687 115.038625 2.987625 113.386281 2.987625 C 111.737844 2.987625 110.398 1.651687 110.398 -0.00065625 C 110.398 -1.649094 111.737844 -2.988938 113.386281 -2.988938 C 115.038625 -2.988938 116.374562 -1.649094 116.374562 -0.00065625 Z M 116.374562 -0.00065625 " transform="matrix(1, 0, 0, -1, 4.602, 31.347)"/>
<path fill="none" stroke-width="0.79701" stroke-linecap="butt" stroke-linejoin="miter" stroke="rgb(0%, 0%, 0%)" stroke-opacity="1" stroke-miterlimit="10" d="M 198.42925 -0.00065625 L 226.773 -0.00065625 " transform="matrix(1, 0, 0, -1, 4.602, 31.347)"/>
<path fill-rule="nonzero" fill="rgb(75%, 75%, 75%)" fill-opacity="1" stroke-width="0.79701" stroke-linecap="butt" stroke-linejoin="miter" stroke="rgb(0%, 0%, 0%)" stroke-opacity="1" stroke-miterlimit="10" d="M 229.765187 -0.00065625 C 229.765187 1.651687 228.425344 2.987625 226.773 2.987625 C 225.124562 2.987625 223.784719 1.651687 223.784719 -0.00065625 C 223.784719 -1.649094 225.124562 -2.988938 226.773 -2.988938 C 228.425344 -2.988938 229.765187 -1.649094 229.765187 -0.00065625 Z M 229.765187 -0.00065625 " transform="matrix(1, 0, 0, -1, 4.602, 31.347)"/>
<path fill="none" stroke-width="0.79701" stroke-linecap="butt" stroke-linejoin="miter" stroke="rgb(0%, 0%, 0%)" stroke-opacity="1" stroke-miterlimit="10" d="M 198.42925 -0.00065625 L 207.187062 26.960281 " transform="matrix(1, 0, 0, -1, 4.602, 31.347)"/>
<path fill-rule="nonzero" fill="rgb(75%, 75%, 75%)" fill-opacity="1" stroke-width="0.79701" stroke-linecap="butt" stroke-linejoin="miter" stroke="rgb(0%, 0%, 0%)" stroke-opacity="1" stroke-miterlimit="10" d="M 210.175344 26.960281 C 210.175344 28.608719 208.839406 29.948562 207.187062 29.948562 C 205.538625 29.948562 204.198781 28.608719 204.198781 26.960281 C 204.198781 25.307937 205.538625 23.972 207.187062 23.972 C 208.839406 23.972 210.175344 25.307937 210.175344 26.960281 Z M 210.175344 26.960281 " transform="matrix(1, 0, 0, -1, 4.602, 31.347)"/>
<path fill="none" stroke-width="0.79701" stroke-linecap="butt" stroke-linejoin="miter" stroke="rgb(0%, 0%, 0%)" stroke-opacity="1" stroke-miterlimit="10" d="M 198.42925 -0.00065625 L 175.495656 16.663406 " transform="matrix(1, 0, 0, -1, 4.602, 31.347)"/>
<path fill-rule="nonzero" fill="rgb(75%, 75%, 75%)" fill-opacity="1" stroke-width="0.79701" stroke-linecap="butt" stroke-linejoin="miter" stroke="rgb(0%, 0%, 0%)" stroke-opacity="1" stroke-miterlimit="10" d="M 178.483937 16.663406 C 178.483937 18.311844 177.144094 19.651687 175.495656 19.651687 C 173.843312 19.651687 172.507375 18.311844 172.507375 16.663406 C 172.507375 15.011062 173.843312 13.671219 175.495656 13.671219 C 177.144094 13.671219 178.483937 15.011062 178.483937 16.663406 Z M 178.483937 16.663406 " transform="matrix(1, 0, 0, -1, 4.602, 31.347)"/>
<path fill="none" stroke-width="0.79701" stroke-linecap="butt" stroke-linejoin="miter" stroke="rgb(0%, 0%, 0%)" stroke-opacity="1" stroke-miterlimit="10" d="M 198.42925 -0.00065625 L 175.495656 -16.660813 " transform="matrix(1, 0, 0, -1, 4.602, 31.347)"/>
<path fill-rule="nonzero" fill="rgb(75%, 75%, 75%)" fill-opacity="1" d="M 183.085938 48.007812 C 183.085938 46.359375 181.746094 45.019531 180.097656 45.019531 C 178.445312 45.019531 177.109375 46.359375 177.109375 48.007812 C 177.109375 49.660156 178.445312 50.996094 180.097656 50.996094 C 181.746094 50.996094 183.085938 49.660156 183.085938 48.007812 Z M 183.085938 48.007812 "/>
<g clip-path="url(#clip-0)">
<path fill="none" stroke-width="0.79701" stroke-linecap="butt" stroke-linejoin="miter" stroke="rgb(0%, 0%, 0%)" stroke-opacity="1" stroke-miterlimit="10" d="M 178.483937 -16.660813 C 178.483937 -15.012375 177.144094 -13.672531 175.495656 -13.672531 C 173.843312 -13.672531 172.507375 -15.012375 172.507375 -16.660813 C 172.507375 -18.313156 173.843312 -19.649094 175.495656 -19.649094 C 177.144094 -19.649094 178.483937 -18.313156 178.483937 -16.660813 Z M 178.483937 -16.660813 " transform="matrix(1, 0, 0, -1, 4.602, 31.347)"/>
</g>
<g clip-path="url(#clip-1)">
<path fill="none" stroke-width="0.79701" stroke-linecap="butt" stroke-linejoin="miter" stroke="rgb(0%, 0%, 0%)" stroke-opacity="1" stroke-miterlimit="10" d="M 198.42925 -0.00065625 L 207.187062 -26.961594 " transform="matrix(1, 0, 0, -1, 4.602, 31.347)"/>
</g>
<path fill-rule="nonzero" fill="rgb(75%, 75%, 75%)" fill-opacity="1" d="M 214.777344 58.308594 C 214.777344 56.65625 213.441406 55.316406 211.789062 55.316406 C 210.140625 55.316406 208.800781 56.65625 208.800781 58.308594 C 208.800781 59.957031 210.140625 61.296875 211.789062 61.296875 C 213.441406 61.296875 214.777344 59.957031 214.777344 58.308594 Z M 214.777344 58.308594 "/>
<g clip-path="url(#clip-2)">
<path fill="none" stroke-width="0.79701" stroke-linecap="butt" stroke-linejoin="miter" stroke="rgb(0%, 0%, 0%)" stroke-opacity="1" stroke-miterlimit="10" d="M 210.175344 -26.961594 C 210.175344 -25.30925 208.839406 -23.969406 207.187062 -23.969406 C 205.538625 -23.969406 204.198781 -25.30925 204.198781 -26.961594 C 204.198781 -28.610031 205.538625 -29.949875 207.187062 -29.949875 C 208.839406 -29.949875 210.175344 -28.610031 210.175344 -26.961594 Z M 210.175344 -26.961594 " transform="matrix(1, 0, 0, -1, 4.602, 31.347)"/>
</g>
<path fill-rule="nonzero" fill="rgb(75%, 75%, 75%)" fill-opacity="1" stroke-width="0.79701" stroke-linecap="butt" stroke-linejoin="miter" stroke="rgb(0%, 0%, 0%)" stroke-opacity="1" stroke-miterlimit="10" d="M 201.417531 -0.00065625 C 201.417531 1.651687 200.077687 2.987625 198.42925 2.987625 C 196.776906 2.987625 195.437062 1.651687 195.437062 -0.00065625 C 195.437062 -1.649094 196.776906 -2.988938 198.42925 -2.988938 C 200.077687 -2.988938 201.417531 -1.649094 201.417531 -0.00065625 Z M 201.417531 -0.00065625 " transform="matrix(1, 0, 0, -1, 4.602, 31.347)"/>
<g clip-path="url(#clip-3)">
<path fill="none" stroke-width="0.79701" stroke-linecap="butt" stroke-linejoin="miter" stroke="rgb(0%, 0%, 0%)" stroke-opacity="1" stroke-miterlimit="10" d="M 368.507375 -0.00065625 L 382.683156 -24.660813 L 382.683156 24.663406 L 368.507375 -0.00065625 L 311.815969 -0.00065625 L 297.640188 24.663406 L 297.640188 -24.660813 L 311.815969 -0.00065625 " transform="matrix(1, 0, 0, -1, 4.602, 31.347)"/>
</g>
<path fill-rule="nonzero" fill="rgb(75%, 75%, 75%)" fill-opacity="1" stroke-width="0.79701" stroke-linecap="butt" stroke-linejoin="miter" stroke="rgb(0%, 0%, 0%)" stroke-opacity="1" stroke-miterlimit="10" d="M 343.151906 -0.00065625 C 343.151906 1.651687 341.812063 2.987625 340.163625 2.987625 C 338.511281 2.987625 337.171438 1.651687 337.171438 -0.00065625 C 337.171438 -1.649094 338.511281 -2.988938 340.163625 -2.988938 C 341.812063 -2.988938 343.151906 -1.649094 343.151906 -0.00065625 Z M 343.151906 -0.00065625 " transform="matrix(1, 0, 0, -1, 4.602, 31.347)"/>
<path fill-rule="nonzero" fill="rgb(75%, 75%, 75%)" fill-opacity="1" stroke-width="0.79701" stroke-linecap="butt" stroke-linejoin="miter" stroke="rgb(0%, 0%, 0%)" stroke-opacity="1" stroke-miterlimit="10" d="M 314.80425 -0.00065625 C 314.80425 1.651687 313.464406 2.987625 311.815969 2.987625 C 310.163625 2.987625 308.827688 1.651687 308.827688 -0.00065625 C 308.827688 -1.649094 310.163625 -2.988938 311.815969 -2.988938 C 313.464406 -2.988938 314.80425 -1.649094 314.80425 -0.00065625 Z M 314.80425 -0.00065625 " transform="matrix(1, 0, 0, -1, 4.602, 31.347)"/>
<path fill-rule="nonzero" fill="rgb(75%, 75%, 75%)" fill-opacity="1" stroke-width="0.79701" stroke-linecap="butt" stroke-linejoin="miter" stroke="rgb(0%, 0%, 0%)" stroke-opacity="1" stroke-miterlimit="10" d="M 300.628469 24.663406 C 300.628469 26.311844 299.292531 27.651687 297.640188 27.651687 C 295.99175 27.651687 294.651906 26.311844 294.651906 24.663406 C 294.651906 23.011062 295.99175 21.671219 297.640188 21.671219 C 299.292531 21.671219 300.628469 23.011062 300.628469 24.663406 Z M 300.628469 24.663406 " transform="matrix(1, 0, 0, -1, 4.602, 31.347)"/>
<path fill-rule="nonzero" fill="rgb(75%, 75%, 75%)" fill-opacity="1" d="M 305.230469 56.007812 C 305.230469 54.359375 303.894531 53.019531 302.242188 53.019531 C 300.59375 53.019531 299.253906 54.359375 299.253906 56.007812 C 299.253906 57.660156 300.59375 58.996094 302.242188 58.996094 C 303.894531 58.996094 305.230469 57.660156 305.230469 56.007812 Z M 305.230469 56.007812 "/>
<g clip-path="url(#clip-4)">
<path fill="none" stroke-width="0.79701" stroke-linecap="butt" stroke-linejoin="miter" stroke="rgb(0%, 0%, 0%)" stroke-opacity="1" stroke-miterlimit="10" d="M 300.628469 -24.660813 C 300.628469 -23.012375 299.292531 -21.672531 297.640188 -21.672531 C 295.99175 -21.672531 294.651906 -23.012375 294.651906 -24.660813 C 294.651906 -26.313156 295.99175 -27.649094 297.640188 -27.649094 C 299.292531 -27.649094 300.628469 -26.313156 300.628469 -24.660813 Z M 300.628469 -24.660813 " transform="matrix(1, 0, 0, -1, 4.602, 31.347)"/>
</g>
<path fill-rule="nonzero" fill="rgb(75%, 75%, 75%)" fill-opacity="1" stroke-width="0.79701" stroke-linecap="butt" stroke-linejoin="miter" stroke="rgb(0%, 0%, 0%)" stroke-opacity="1" stroke-miterlimit="10" d="M 371.495656 -0.00065625 C 371.495656 1.651687 370.159719 2.987625 368.507375 2.987625 C 366.858938 2.987625 365.519094 1.651687 365.519094 -0.00065625 C 365.519094 -1.649094 366.858938 -2.988938 368.507375 -2.988938 C 370.159719 -2.988938 371.495656 -1.649094 371.495656 -0.00065625 Z M 371.495656 -0.00065625 " transform="matrix(1, 0, 0, -1, 4.602, 31.347)"/>
<path fill-rule="nonzero" fill="rgb(75%, 75%, 75%)" fill-opacity="1" d="M 390.273438 6.683594 C 390.273438 5.035156 388.933594 3.695312 387.285156 3.695312 C 385.632812 3.695312 384.296875 5.035156 384.296875 6.683594 C 384.296875 8.335938 385.632812 9.675781 387.285156 9.675781 C 388.933594 9.675781 390.273438 8.335938 390.273438 6.683594 Z M 390.273438 6.683594 "/>
<g clip-path="url(#clip-5)">
<path fill="none" stroke-width="0.79701" stroke-linecap="butt" stroke-linejoin="miter" stroke="rgb(0%, 0%, 0%)" stroke-opacity="1" stroke-miterlimit="10" d="M 385.671438 24.663406 C 385.671438 26.311844 384.331594 27.651687 382.683156 27.651687 C 381.030813 27.651687 379.694875 26.311844 379.694875 24.663406 C 379.694875 23.011062 381.030813 21.671219 382.683156 21.671219 C 384.331594 21.671219 385.671438 23.011062 385.671438 24.663406 Z M 385.671438 24.663406 " transform="matrix(1, 0, 0, -1, 4.602, 31.347)"/>
</g>
<path fill-rule="nonzero" fill="rgb(75%, 75%, 75%)" fill-opacity="1" d="M 390.273438 56.007812 C 390.273438 54.359375 388.933594 53.019531 387.285156 53.019531 C 385.632812 53.019531 384.296875 54.359375 384.296875 56.007812 C 384.296875 57.660156 385.632812 58.996094 387.285156 58.996094 C 388.933594 58.996094 390.273438 57.660156 390.273438 56.007812 Z M 390.273438 56.007812 "/>
<g clip-path="url(#clip-6)">
<path fill="none" stroke-width="0.79701" stroke-linecap="butt" stroke-linejoin="miter" stroke="rgb(0%, 0%, 0%)" stroke-opacity="1" stroke-miterlimit="10" d="M 385.671438 -24.660813 C 385.671438 -23.012375 384.331594 -21.672531 382.683156 -21.672531 C 381.030813 -21.672531 379.694875 -23.012375 379.694875 -24.660813 C 379.694875 -26.313156 381.030813 -27.649094 382.683156 -27.649094 C 384.331594 -27.649094 385.671438 -26.313156 385.671438 -24.660813 Z M 385.671438 -24.660813 " transform="matrix(1, 0, 0, -1, 4.602, 31.347)"/>
</g>
</svg>
