<?xml version="1.0" encoding="UTF-8"?>
<svg xmlns="http://www.w3.org/2000/svg" xmlns:xlink="http://www.w3.org/1999/xlink" width="391.28" height="62.48" viewBox="0 0 391.28 62.48">
<defs>
<clipPath id="clip-0">
<path clip-rule="nonzero" d="M 165 33 L 194 33 L 194 62.480469 L 165 62.480469 Z M 165 33 "/>
</clipPath>
<clipPath id="clip-1">
<path clip-rule="nonzero" d="M 191 19 L 223 19 L 223 62.480469 L 191 62.480469 Z M 191 19 "/>
</clipPath>
<clipPath id="clip-2">
<path clip-rule="nonzero" d="M 197 43 L 226 43 L 226 62.480469 L 197 62.480469 Z M 197 43 "/>
</clipPath>
<clipPath id="clip-3">
<path clip-rule="nonzero" d="M 290 0 L 391.28125 0 L 391.28125 62.480469 L 290 62.480469 Z M 290 0 "/>
</clipPath>
<clipPath id="clip-4">
<path clip-rule="nonzero" d="M 287 41 L 317 41 L 317 62.480469 L 287 62.480469 Z M 287 41 "/>
</clipPath>
<clipPath id="clip-5">
<path clip-rule="nonzero" d="M 372 0 L 391.28125 0 L 391.28125 21 L 372 21 Z M 372 0 "/>
</clipPath>
<clipPath id="clip-6">
<path clip-rule="nonzero" d="M 372 41 L 391.28125 41 L 391.28125 62.480469 L 372 62.480469 Z M 372 41 "/>
</clipPath>
</defs>
<path fill="none" stroke-width="0.79701" stroke-linecap="butt" stroke-linejoin="miter" stroke="rgb(0%, 0%, 0%)" stroke-opacity="1" stroke-miterlimit="10" d="M -0.00171875 -0.00146875 L 113.388906 -0.00146875 " transform="matrix(1, 0, 0, -1, 4.24, 31.229)"/>
<path fill-rule="nonzero" fill="rgb(75%, 75%, 75%)" fill-opacity="1" stroke-width="0.79701" stroke-linecap="butt" stroke-linejoin="miter" stroke="rgb(0%, 0%, 0%)" stroke-opacity="1" stroke-miterlimit="10" d="M 2.990469 -0.00146875 C 2.990469 1.650875 1.650625 2.990719 -0.00171875 2.990719 C -1.650156 2.990719 -2.99 1.650875 -2.99 -0.00146875 C -2.99 -1.649906 -1.650156 -2.98975 -0.00171875 -2.98975 C 1.650625 -2.98975 2.990469 -1.649906 2.990469 -0.00146875 Z M 2.990469 -0.00146875 " transform="matrix(1, 0, 0, -1, 4.24, 31.229)"/>
<path fill-rule="nonzero" fill="rgb(75%, 75%, 75%)" fill-opacity="1" stroke-width="0.79701" stroke-linecap="butt" stroke-linejoin="miter" stroke="rgb(0%, 0%, 0%)" stroke-opacity="1" stroke-miterlimit="10" d="M 31.334219 -0.00146875 C 31.334219 1.650875 29.998281 2.990719 28.345938 2.990719 C 26.6975 2.990719 25.357656 1.650875 25.357656 -0.00146875 C 25.357656 -1.649906 26.6975 -2.98975 28.345938 -2.98975 C 29.998281 -2.98975 31.334219 -1.649906 31.334219 -0.00146875 Z M 31.334219 -0.00146875 " transform="matrix(1, 0, 0, -1, 4.24, 31.229)"/>
<path fill-rule="nonzero" fill="rgb(75%, 75%, 75%)" fill-opacity="1" stroke-width="0.79701" stroke-linecap="butt" stroke-linejoin="miter" stroke="rgb(0%, 0%, 0%)" stroke-opacity="1" stroke-miterlimit="10" d="M 59.681875 -0.00146875 C 59.681875 1.650875 58.345938 2.990719 56.693594 2.990719 C 55.04125 2.990719 53.705313 1.650875 53.705313 -0.00146875 C 53.705313 -1.649906 55.04125 -2.98975 56.693594 -2.98975 C 58.345938 -2.98975 59.681875 -1.649906 59.681875 -0.00146875 Z M 59.681875 -0.00146875 " transform="matrix(1, 0, 0, -1, 4.24, 31.229)"/>
<path fill-rule="nonzero" fill="rgb(75%, 75%, 75%)" fill-opacity="1" stroke-width="0.79701" stroke-linecap="butt" stroke-linejoin="miter" stroke="rgb(0%, 0%, 0%)" stroke-opacity="1" stroke-miterlimit="10" d="M 88.029531 -0.00146875 C 88.029531 1.650875 86.689688 2.990719 85.04125 2.990719 C 83.388906 2.990719 82.052969 1.650875 82.052969 -0.00146875 C 82.052969 -1.649906 83.388906 -2.98975 85.04125 -2.98975 C 86.689688 -2.98975 88.029531 -1.649906 88.029531 -0.00146875 Z M 88.029531 -0.00146875 " transform="matrix(1, 0, 0, -1, 4.24, 31.229)"/>
<path fill-rule="nonzero" fill="rgb(75%, 75%, 75%)" fill-opacity="1" stroke-width="0.79701" stroke-linecap="butt" stroke-linejoin="miter" stroke="rgb(0%, 0%, 0%)" stroke-opacity="1" stroke-miterlimit="10" d="M 116.377188 -0.00146875 C 116.377188 1.650875 115.037344 2.990719 113.388906 2.990719 C 111.736563 2.990719 110.396719 1.650875 110.396719 -0.00146875 C 110.396719 -1.649906 111.736563 -2.98975 113.388906 -2.98975 C 115.037344 -2.98975 116.377188 -1.649906 116.377188 -0.00146875 Z M 116.377188 -0.00146875 " transform="matrix(1, 0, 0, -1, 4.24, 31.229)"/>
<path fill="none" stroke-width="0.79701" stroke-linecap="butt" stroke-linejoin="miter" stroke="rgb(0%, 0%, 0%)" stroke-opacity="1" stroke-miterlimit="10" d="M 198.427969 -0.00146875 L 226.775625 -0.00146875 " transform="matrix(1, 0, 0, -1, 4.24, 31.229)"/>
<path fill-rule="nonzero" fill="rgb(75%, 75%, 75%)" fill-opacity="1" stroke-width="0.79701" stroke-linecap="butt" stroke-linejoin="miter" stroke="rgb(0%, 0%, 0%)" stroke-opacity="1" stroke-miterlimit="10" d="M 229.763906 -0.00146875 C 229.763906 1.650875 228.424063 2.990719 226.775625 2.990719 C 225.123281 2.990719 223.787344 1.650875 223.787344 -0.00146875 C 223.787344 -1.649906 225.123281 -2.98975 226.775625 -2.98975 C 228.424063 -2.98975 229.763906 -1.649906 229.763906 -0.00146875 Z M 229.763906 -0.00146875 " transform="matrix(1, 0, 0, -1, 4.24, 31.229)"/>
<path fill="none" stroke-width="0.79701" stroke-linecap="butt" stroke-linejoin="miter" stroke="rgb(0%, 0%, 0%)" stroke-opacity="1" stroke-miterlimit="10" d="M 198.427969 -0.00146875 L 207.185781 26.959469 " transform="matrix(1, 0, 0, -1, 4.24, 31.229)"/>
<path fill-rule="nonzero" fill="rgb(75%, 75%, 75%)" fill-opacity="1" stroke-width="0.79701" stroke-linecap="butt" stroke-linejoin="miter" stroke="rgb(0%, 0%, 0%)" stroke-opacity="1" stroke-miterlimit="10" d="M 210.177969 26.959469 C 210.177969 28.611812 208.838125 29.94775 207.185781 29.94775 C 205.537344 29.94775 204.1975 28.611812 204.1975 26.959469 C 204.1975 25.307125 205.537344 23.971187 207.185781 23.971187 C 208.838125 23.971187 210.177969 25.307125 210.177969 26.959469 Z M 210.177969 26.959469 " transform="matrix(1, 0, 0, -1, 4.24, 31.229)"/>
<path fill="none" stroke-width="0.79701" stroke-linecap="butt" stroke-linejoin="miter" stroke="rgb(0%, 0%, 0%)" stroke-opacity="1" stroke-miterlimit="10" d="M 198.427969 -0.00146875 L 175.494375 16.662594 " transform="matrix(1, 0, 0, -1, 4.24, 31.229)"/>
<path fill-rule="nonzero" fill="rgb(75%, 75%, 75%)" fill-opacity="1" stroke-width="0.79701" stroke-linecap="butt" stroke-linejoin="miter" stroke="rgb(0%, 0%, 0%)" stroke-opacity="1" stroke-miterlimit="10" d="M 178.482656 16.662594 C 178.482656 18.311031 177.146719 19.650875 175.494375 19.650875 C 173.842031 19.650875 172.506094 18.311031 172.506094 16.662594 C 172.506094 15.01025 173.842031 13.674312 175.494375 13.674312 C 177.146719 13.674312 178.482656 15.01025 178.482656 16.662594 Z M 178.482656 16.662594 " transform="matrix(1, 0, 0, -1, 4.24, 31.229)"/>
<path fill="none" stroke-width="0.79701" stroke-linecap="butt" stroke-linejoin="miter" stroke="rgb(0%, 0%, 0%)" stroke-opacity="1" stroke-miterlimit="10" d="M 198.427969 -0.00146875 L 175.494375 -16.661625 " transform="matrix(1, 0, 0, -1, 4.24, 31.229)"/>
<path fill-rule="nonzero" fill="rgb(75%, 75%, 75%)" fill-opacity="1" d="M 182.722656 47.890625 C 182.722656 46.238281 181.386719 44.902344 179.734375 44.902344 C 178.082031 44.902344 176.746094 46.238281 176.746094 47.890625 C 176.746094 49.542969 178.082031 50.878906 179.734375 50.878906 C 181.386719 50.878906 182.722656 49.542969 182.722656 47.890625 Z M 182.722656 47.890625 "/>
<g clip-path="url(#clip-0)">
<path fill="none" stroke-width="0.79701" stroke-linecap="butt" stroke-linejoin="miter" stroke="rgb(0%, 0%, 0%)" stroke-opacity="1" stroke-miterlimit="10" d="M 178.482656 -16.661625 C 178.482656 -15.009281 177.146719 -13.673344 175.494375 -13.673344 C 173.842031 -13.673344 172.506094 -15.009281 172.506094 -16.661625 C 172.506094 -18.313969 173.842031 -19.649906 175.494375 -19.649906 C 177.146719 -19.649906 178.482656 -18.313969 178.482656 -16.661625 Z M 178.482656 -16.661625 " transform="matrix(1, 0, 0, -1, 4.24, 31.229)"/>
</g>
<g clip-path="url(#clip-1)">
<path fill="none" stroke-width="0.79701" stroke-linecap="butt" stroke-linejoin="miter" stroke="rgb(0%, 0%, 0%)" stroke-opacity="1" stroke-miterlimit="10" d="M 198.427969 -0.00146875 L 207.185781 -26.9585 " transform="matrix(1, 0, 0, -1, 4.24, 31.229)"/>
</g>
<path fill-rule="nonzero" fill="rgb(75%, 75%, 75%)" fill-opacity="1" d="M 214.417969 58.1875 C 214.417969 56.539062 213.078125 55.199219 211.425781 55.199219 C 209.777344 55.199219 208.4375 56.539062 208.4375 58.1875 C 208.4375 59.839844 209.777344 61.175781 211.425781 61.175781 C 213.078125 61.175781 214.417969 59.839844 214.417969 58.1875 Z M 214.417969 58.1875 "/>
<g clip-path="url(#clip-2)">
<path fill="none" stroke-width="0.79701" stroke-linecap="butt" stroke-linejoin="miter" stroke="rgb(0%, 0%, 0%)" stroke-opacity="1" stroke-miterlimit="10" d="M 210.177969 -26.9585 C 210.177969 -25.310063 208.838125 -23.970219 207.185781 -23.970219 C 205.537344 -23.970219 204.1975 -25.310063 204.1975 -26.9585 C 204.1975 -28.610844 205.537344 -29.946781 207.185781 -29.946781 C 208.838125 -29.946781 210.177969 -28.610844 210.177969 -26.9585 Z M 210.177969 -26.9585 " transform="matrix(1, 0, 0, -1, 4.24, 31.229)"/>
</g>
<path fill-rule="nonzero" fill="rgb(75%, 75%, 75%)" fill-opacity="1" stroke-width="0.79701" stroke-linecap="butt" stroke-linejoin="miter" stroke="rgb(0%, 0%, 0%)" stroke-opacity="1" stroke-miterlimit="10" d="M 201.41625 -0.00146875 C 201.41625 1.650875 200.080313 2.990719 198.427969 2.990719 C 196.775625 2.990719 195.439688 1.650875 195.439688 -0.00146875 C 195.439688 -1.649906 196.775625 -2.98975 198.427969 -2.98975 C 200.080313 -2.98975 201.41625 -1.649906 201.41625 -0.00146875 Z M 201.41625 -0.00146875 " transform="matrix(1, 0, 0, -1, 4.24, 31.229)"/>
<g clip-path="url(#clip-3)">
<path fill="none" stroke-width="0.79701" stroke-linecap="butt" stroke-linejoin="miter" stroke="rgb(0%, 0%, 0%)" stroke-opacity="1" stroke-miterlimit="10" d="M 368.51 -0.00146875 L 382.681875 -24.661625 L 382.681875 24.662594 L 368.51 -0.00146875 L 311.814687 -0.00146875 L 297.642812 24.662594 L 297.642812 -24.661625 L 311.814687 -0.00146875 " transform="matrix(1, 0, 0, -1, 4.24, 31.229)"/>
</g>
<path fill-rule="nonzero" fill="rgb(75%, 75%, 75%)" fill-opacity="1" stroke-width="0.79701" stroke-linecap="butt" stroke-linejoin="miter" stroke="rgb(0%, 0%, 0%)" stroke-opacity="1" stroke-miterlimit="10" d="M 343.150625 -0.00146875 C 343.150625 1.650875 341.810781 2.990719 340.162344 2.990719 C 338.51 2.990719 337.174062 1.650875 337.174062 -0.00146875 C 337.174062 -1.649906 338.51 -2.98975 340.162344 -2.98975 C 341.810781 -2.98975 343.150625 -1.649906 343.150625 -0.00146875 Z M 343.150625 -0.00146875 " transform="matrix(1, 0, 0, -1, 4.24, 31.229)"/>
<path fill-rule="nonzero" fill="rgb(75%, 75%, 75%)" fill-opacity="1" stroke-width="0.79701" stroke-linecap="butt" stroke-linejoin="miter" stroke="rgb(0%, 0%, 0%)" stroke-opacity="1" stroke-miterlimit="10" d="M 314.802969 -0.00146875 C 314.802969 1.650875 313.467031 2.990719 311.814687 2.990719 C 310.162344 2.990719 308.826406 1.650875 308.826406 -0.00146875 C 308.826406 -1.649906 310.162344 -2.98975 311.814687 -2.98975 C 313.467031 -2.98975 314.802969 -1.649906 314.802969 -0.00146875 Z M 314.802969 -0.00146875 " transform="matrix(1, 0, 0, -1, 4.24, 31.229)"/>
<path fill-rule="nonzero" fill="rgb(75%, 75%, 75%)" fill-opacity="1" stroke-width="0.79701" stroke-linecap="butt" stroke-linejoin="miter" stroke="rgb(0%, 0%, 0%)" stroke-opacity="1" stroke-miterlimit="10" d="M 300.631094 24.662594 C 300.631094 26.311031 299.29125 27.650875 297.642812 27.650875 C 295.990469 27.650875 294.654531 26.311031 294.654531 24.662594 C 294.654531 23.01025 295.990469 21.674312 297.642812 21.674312 C 299.29125 21.674312 300.631094 23.01025 300.631094 24.662594 Z M 300.631094 24.662594 " transform="matrix(1, 0, 0, -1, 4.24, 31.229)"/>
<path fill-rule="nonzero" fill="rgb(75%, 75%, 75%)" fill-opacity="1" d="M 304.871094 55.890625 C 304.871094 54.238281 303.53125 52.902344 301.882812 52.902344 C 300.230469 52.902344 298.894531 54.238281 298.894531 55.890625 C 298.894531 57.542969 300.230469 58.878906 301.882812 58.878906 C 303.53125 58.878906 304.871094 57.542969 304.871094 55.890625 Z M 304.871094 55.890625 "/>
<g clip-path="url(#clip-4)">
<path fill="none" stroke-width="0.79701" stroke-linecap="butt" stroke-linejoin="miter" stroke="rgb(0%, 0%, 0%)" stroke-opacity="1" stroke-miterlimit="10" d="M 300.631094 -24.661625 C 300.631094 -23.009281 299.29125 -21.673344 297.642812 -21.673344 C 295.990469 -21.673344 294.654531 -23.009281 294.654531 -24.661625 C 294.654531 -26.313969 295.990469 -27.649906 297.642812 -27.649906 C 299.29125 -27.649906 300.631094 -26.313969 300.631094 -24.661625 Z M 300.631094 -24.661625 " transform="matrix(1, 0, 0, -1, 4.24, 31.229)"/>
</g>
<path fill-rule="nonzero" fill="rgb(75%, 75%, 75%)" fill-opacity="1" stroke-width="0.79701" stroke-linecap="butt" stroke-linejoin="miter" stroke="rgb(0%, 0%, 0%)" stroke-opacity="1" stroke-miterlimit="10" d="M 371.498281 -0.00146875 C 371.498281 1.650875 370.158437 2.990719 368.51 2.990719 C 366.857656 2.990719 365.517812 1.650875 365.517812 -0.00146875 C 365.517812 -1.649906 366.857656 -2.98975 368.51 -2.98975 C 370.158437 -2.98975 371.498281 -1.649906 371.498281 -0.00146875 Z M 371.498281 -0.00146875 " transform="matrix(1, 0, 0, -1, 4.24, 31.229)"/>
<path fill-rule="nonzero" fill="rgb(75%, 75%, 75%)" fill-opacity="1" d="M 389.910156 6.566406 C 389.910156 4.917969 388.574219 3.578125 386.921875 3.578125 C 385.269531 3.578125 383.933594 4.917969 383.933594 6.566406 C 383.933594 8.21875 385.269531 9.554688 386.921875 9.554688 C 388.574219 9.554688 389.910156 8.21875 389.910156 6.566406 Z M 389.910156 6.566406 "/>
<g clip-path="url(#clip-5)">
<path fill="none" stroke-width="0.79701" stroke-linecap="butt" stroke-linejoin="miter" stroke="rgb(0%, 0%, 0%)" stroke-opacity="1" stroke-miterlimit="10" d="M 385.670156 24.662594 C 385.670156 26.311031 384.334219 27.650875 382.681875 27.650875 C 381.029531 27.650875 379.693594 26.311031 379.693594 24.662594 C 379.693594 23.01025 381.029531 21.674312 382.681875 21.674312 C 384.334219 21.674312 385.670156 23.01025 385.670156 24.662594 Z M 385.670156 24.662594 " transform="matrix(1, 0, 0, -1, 4.24, 31.229)"/>
</g>
<path fill-rule="nonzero" fill="rgb(75%, 75%, 75%)" fill-opacity="1" d="M 389.910156 55.890625 C 389.910156 54.238281 388.574219 52.902344 386.921875 52.902344 C 385.269531 52.902344 383.933594 54.238281 383.933594 55.890625 C 383.933594 57.542969 385.269531 58.878906 386.921875 58.878906 C 388.574219 58.878906 389.910156 57.542969 389.910156 55.890625 Z M 389.910156 55.890625 "/>
<g clip-path="url(#clip-6)">
<path fill="none" stroke-width="0.79701" stroke-linecap="butt" stroke-linejoin="miter" stroke="rgb(0%, 0%, 0%)" stroke-opacity="1" stroke-miterlimit="10" d="M 385.670156 -24.661625 C 385.670156 -23.009281 384.334219 -21.673344 382.681875 -21.673344 C 381.029531 -21.673344 379.693594 -23.009281 379.693594 -24.661625 C 379.693594 -26.313969 381.029531 -27.649906 382.681875 -27.649906 C 384.334219 -27.649906 385.670156 -26.313969 385.670156 -24.661625 Z M 385.670156 -24.661625 " transform="matrix(1, 0, 0, -1, 4.24, 31.229)"/>
</g>
</svg>
