<?xml version="1.0" encoding="UTF-8"?>
<svg xmlns="http://www.w3.org/2000/svg" xmlns:xlink="http://www.w3.org/1999/xlink" width="391.76pt" height="62.92308pt" viewBox="0 0 391.76 62.92308" version="1.1">
<defs>
<clipPath id="clip1">
  <path d="M 165 33 L 195 33 L 195 62.921875 L 165 62.921875 Z M 165 33 "/>
</clipPath>
<clipPath id="clip2">
  <path d="M 191 20 L 224 20 L 224 62.921875 L 191 62.921875 Z M 191 20 "/>
</clipPath>
<clipPath id="clip3">
  <path d="M 197 44 L 227 44 L 227 62.921875 L 197 62.921875 Z M 197 44 "/>
</clipPath>
<clipPath id="clip4">
  <path d="M 290 0 L 391.761719 0 L 391.761719 62.921875 L 290 62.921875 Z M 290 0 "/>
</clipPath>
<clipPath id="clip5">
  <path d="M 287 41 L 317 41 L 317 62.921875 L 287 62.921875 Z M 287 41 "/>
</clipPath>
<clipPath id="clip6">
  <path d="M 373 0 L 391.761719 0 L 391.761719 21 L 373 21 Z M 373 0 "/>
</clipPath>
<clipPath id="clip7">
  <path d="M 373 41 L 391.761719 41 L 391.761719 62.921875 L 373 62.921875 Z M 373 41 "/>
</clipPath>
</defs>
<g id="surface1">
<path style="fill:none;stroke-width:0.79701;stroke-linecap:butt;stroke-linejoin:miter;stroke:rgb(0%,0%,0%);stroke-opacity:1;stroke-miterlimit:10;" d="M -0.0004375 -0.0009225 L 113.386281 -0.0009225 " transform="matrix(1,0,0,-1,4.602,31.38189)"/>
<path style="fill-rule:nonzero;fill:rgb(75%,75%,75%);fill-opacity:1;stroke-width:0.79701;stroke-linecap:butt;stroke-linejoin:miter;stroke:rgb(0%,0%,0%);stroke-opacity:1;stroke-miterlimit:10;" d="M 2.987844 -0.0009225 C 2.987844 1.651421 1.651906 2.987359 -0.0004375 2.987359 C -1.648875 2.987359 -2.988719 1.651421 -2.988719 -0.0009225 C -2.988719 -1.64936 -1.648875 -2.989204 -0.0004375 -2.989204 C 1.651906 -2.989204 2.987844 -1.64936 2.987844 -0.0009225 Z M 2.987844 -0.0009225 " transform="matrix(1,0,0,-1,4.602,31.38189)"/>
<path style="fill-rule:nonzero;fill:rgb(75%,75%,75%);fill-opacity:1;stroke-width:0.79701;stroke-linecap:butt;stroke-linejoin:miter;stroke:rgb(0%,0%,0%);stroke-opacity:1;stroke-miterlimit:10;" d="M 31.3355 -0.0009225 C 31.3355 1.651421 29.995656 2.987359 28.347219 2.987359 C 26.694875 2.987359 25.358938 1.651421 25.358938 -0.0009225 C 25.358938 -1.64936 26.694875 -2.989204 28.347219 -2.989204 C 29.995656 -2.989204 31.3355 -1.64936 31.3355 -0.0009225 Z M 31.3355 -0.0009225 " transform="matrix(1,0,0,-1,4.602,31.38189)"/>
<path style="fill-rule:nonzero;fill:rgb(75%,75%,75%);fill-opacity:1;stroke-width:0.79701;stroke-linecap:butt;stroke-linejoin:miter;stroke:rgb(0%,0%,0%);stroke-opacity:1;stroke-miterlimit:10;" d="M 59.683156 -0.0009225 C 59.683156 1.651421 58.343313 2.987359 56.694875 2.987359 C 55.042531 2.987359 53.706594 1.651421 53.706594 -0.0009225 C 53.706594 -1.64936 55.042531 -2.989204 56.694875 -2.989204 C 58.343313 -2.989204 59.683156 -1.64936 59.683156 -0.0009225 Z M 59.683156 -0.0009225 " transform="matrix(1,0,0,-1,4.602,31.38189)"/>
<path style="fill-rule:nonzero;fill:rgb(75%,75%,75%);fill-opacity:1;stroke-width:0.79701;stroke-linecap:butt;stroke-linejoin:miter;stroke:rgb(0%,0%,0%);stroke-opacity:1;stroke-miterlimit:10;" d="M 88.030812 -0.0009225 C 88.030812 1.651421 86.690969 2.987359 85.038625 2.987359 C 83.390187 2.987359 82.050344 1.651421 82.050344 -0.0009225 C 82.050344 -1.64936 83.390187 -2.989204 85.038625 -2.989204 C 86.690969 -2.989204 88.030812 -1.64936 88.030812 -0.0009225 Z M 88.030812 -0.0009225 " transform="matrix(1,0,0,-1,4.602,31.38189)"/>
<path style="fill-rule:nonzero;fill:rgb(75%,75%,75%);fill-opacity:1;stroke-width:0.79701;stroke-linecap:butt;stroke-linejoin:miter;stroke:rgb(0%,0%,0%);stroke-opacity:1;stroke-miterlimit:10;" d="M 116.374562 -0.0009225 C 116.374562 1.651421 115.038625 2.987359 113.386281 2.987359 C 111.737844 2.987359 110.398 1.651421 110.398 -0.0009225 C 110.398 -1.64936 111.737844 -2.989204 113.386281 -2.989204 C 115.038625 -2.989204 116.374562 -1.64936 116.374562 -0.0009225 Z M 116.374562 -0.0009225 " transform="matrix(1,0,0,-1,4.602,31.38189)"/>
<path style="fill:none;stroke-width:0.79701;stroke-linecap:butt;stroke-linejoin:miter;stroke:rgb(0%,0%,0%);stroke-opacity:1;stroke-miterlimit:10;" d="M 198.42925 -0.0009225 L 226.773 -0.0009225 " transform="matrix(1,0,0,-1,4.602,31.38189)"/>
<path style="fill-rule:nonzero;fill:rgb(75%,75%,75%);fill-opacity:1;stroke-width:0.79701;stroke-linecap:butt;stroke-linejoin:miter;stroke:rgb(0%,0%,0%);stroke-opacity:1;stroke-miterlimit:10;" d="M 229.765187 -0.0009225 C 229.765187 1.651421 228.425344 2.987359 226.773 2.987359 C 225.124562 2.987359 223.784719 1.651421 223.784719 -0.0009225 C 223.784719 -1.64936 225.124562 -2.989204 226.773 -2.989204 C 228.425344 -2.989204 229.765187 -1.64936 229.765187 -0.0009225 Z M 229.765187 -0.0009225 " transform="matrix(1,0,0,-1,4.602,31.38189)"/>
<path style="fill:none;stroke-width:0.79701;stroke-linecap:butt;stroke-linejoin:miter;stroke:rgb(0%,0%,0%);stroke-opacity:1;stroke-miterlimit:10;" d="M 198.42925 -0.0009225 L 207.187062 26.960015 " transform="matrix(1,0,0,-1,4.602,31.38189)"/>
<path style="fill-rule:nonzero;fill:rgb(75%,75%,75%);fill-opacity:1;stroke-width:0.79701;stroke-linecap:butt;stroke-linejoin:miter;stroke:rgb(0%,0%,0%);stroke-opacity:1;stroke-miterlimit:10;" d="M 210.175344 26.960015 C 210.175344 28.608452 208.839406 29.948296 207.187062 29.948296 C 205.538625 29.948296 204.198781 28.608452 204.198781 26.960015 C 204.198781 25.307671 205.538625 23.971734 207.187062 23.971734 C 208.839406 23.971734 210.175344 25.307671 210.175344 26.960015 Z M 210.175344 26.960015 " transform="matrix(1,0,0,-1,4.602,31.38189)"/>
<path style="fill:none;stroke-width:0.79701;stroke-linecap:butt;stroke-linejoin:miter;stroke:rgb(0%,0%,0%);stroke-opacity:1;stroke-miterlimit:10;" d="M 198.42925 -0.0009225 L 175.495656 16.66314 " transform="matrix(1,0,0,-1,4.602,31.38189)"/>
<path style="fill-rule:nonzero;fill:rgb(75%,75%,75%);fill-opacity:1;stroke-width:0.79701;stroke-linecap:butt;stroke-linejoin:miter;stroke:rgb(0%,0%,0%);stroke-opacity:1;stroke-miterlimit:10;" d="M 178.483937 16.66314 C 178.483937 18.311577 177.144094 19.651421 175.495656 19.651421 C 173.843312 19.651421 172.507375 18.311577 172.507375 16.66314 C 172.507375 15.010796 173.843312 13.674859 175.495656 13.674859 C 177.144094 13.674859 178.483937 15.010796 178.483937 16.66314 Z M 178.483937 16.66314 " transform="matrix(1,0,0,-1,4.602,31.38189)"/>
<path style="fill:none;stroke-width:0.79701;stroke-linecap:butt;stroke-linejoin:miter;stroke:rgb(0%,0%,0%);stroke-opacity:1;stroke-miterlimit:10;" d="M 198.42925 -0.0009225 L 175.495656 -16.661079 " transform="matrix(1,0,0,-1,4.602,31.38189)"/>
<path style=" stroke:none;fill-rule:nonzero;fill:rgb(75%,75%,75%);fill-opacity:1;" d="M 183.085938 48.042969 C 183.085938 46.394531 181.746094 45.054688 180.097656 45.054688 C 178.445312 45.054688 177.109375 46.394531 177.109375 48.042969 C 177.109375 49.695312 178.445312 51.03125 180.097656 51.03125 C 181.746094 51.03125 183.085938 49.695312 183.085938 48.042969 Z M 183.085938 48.042969 "/>
<g clip-path="url(#clip1)" clip-rule="nonzero">
<path style="fill:none;stroke-width:0.79701;stroke-linecap:butt;stroke-linejoin:miter;stroke:rgb(0%,0%,0%);stroke-opacity:1;stroke-miterlimit:10;" d="M 178.483937 -16.661079 C 178.483937 -15.012641 177.144094 -13.672798 175.495656 -13.672798 C 173.843312 -13.672798 172.507375 -15.012641 172.507375 -16.661079 C 172.507375 -18.313423 173.843312 -19.64936 175.495656 -19.64936 C 177.144094 -19.64936 178.483937 -18.313423 178.483937 -16.661079 Z M 178.483937 -16.661079 " transform="matrix(1,0,0,-1,4.602,31.38189)"/>
</g>
<g clip-path="url(#clip2)" clip-rule="nonzero">
<path style="fill:none;stroke-width:0.79701;stroke-linecap:butt;stroke-linejoin:miter;stroke:rgb(0%,0%,0%);stroke-opacity:1;stroke-miterlimit:10;" d="M 198.42925 -0.0009225 L 207.187062 -26.957954 " transform="matrix(1,0,0,-1,4.602,31.38189)"/>
</g>
<path style=" stroke:none;fill-rule:nonzero;fill:rgb(75%,75%,75%);fill-opacity:1;" d="M 214.777344 58.339844 C 214.777344 56.691406 213.441406 55.351562 211.789062 55.351562 C 210.140625 55.351562 208.800781 56.691406 208.800781 58.339844 C 208.800781 59.992188 210.140625 61.332031 211.789062 61.332031 C 213.441406 61.332031 214.777344 59.992188 214.777344 58.339844 Z M 214.777344 58.339844 "/>
<g clip-path="url(#clip3)" clip-rule="nonzero">
<path style="fill:none;stroke-width:0.79701;stroke-linecap:butt;stroke-linejoin:miter;stroke:rgb(0%,0%,0%);stroke-opacity:1;stroke-miterlimit:10;" d="M 210.175344 -26.957954 C 210.175344 -25.309516 208.839406 -23.969673 207.187062 -23.969673 C 205.538625 -23.969673 204.198781 -25.309516 204.198781 -26.957954 C 204.198781 -28.610298 205.538625 -29.950141 207.187062 -29.950141 C 208.839406 -29.950141 210.175344 -28.610298 210.175344 -26.957954 Z M 210.175344 -26.957954 " transform="matrix(1,0,0,-1,4.602,31.38189)"/>
</g>
<path style="fill-rule:nonzero;fill:rgb(75%,75%,75%);fill-opacity:1;stroke-width:0.79701;stroke-linecap:butt;stroke-linejoin:miter;stroke:rgb(0%,0%,0%);stroke-opacity:1;stroke-miterlimit:10;" d="M 201.417531 -0.0009225 C 201.417531 1.651421 200.077687 2.987359 198.42925 2.987359 C 196.776906 2.987359 195.437062 1.651421 195.437062 -0.0009225 C 195.437062 -1.64936 196.776906 -2.989204 198.42925 -2.989204 C 200.077687 -2.989204 201.417531 -1.64936 201.417531 -0.0009225 Z M 201.417531 -0.0009225 " transform="matrix(1,0,0,-1,4.602,31.38189)"/>
<g clip-path="url(#clip4)" clip-rule="nonzero">
<path style="fill:none;stroke-width:0.79701;stroke-linecap:butt;stroke-linejoin:miter;stroke:rgb(0%,0%,0%);stroke-opacity:1;stroke-miterlimit:10;" d="M 368.507375 -0.0009225 L 382.683156 -24.661079 L 382.683156 24.66314 L 368.507375 -0.0009225 L 311.815969 -0.0009225 L 297.640188 24.66314 L 297.640188 -24.661079 L 311.815969 -0.0009225 " transform="matrix(1,0,0,-1,4.602,31.38189)"/>
</g>
<path style="fill-rule:nonzero;fill:rgb(75%,75%,75%);fill-opacity:1;stroke-width:0.79701;stroke-linecap:butt;stroke-linejoin:miter;stroke:rgb(0%,0%,0%);stroke-opacity:1;stroke-miterlimit:10;" d="M 343.151906 -0.0009225 C 343.151906 1.651421 341.812063 2.987359 340.163625 2.987359 C 338.511281 2.987359 337.171438 1.651421 337.171438 -0.0009225 C 337.171438 -1.64936 338.511281 -2.989204 340.163625 -2.989204 C 341.812063 -2.989204 343.151906 -1.64936 343.151906 -0.0009225 Z M 343.151906 -0.0009225 " transform="matrix(1,0,0,-1,4.602,31.38189)"/>
<path style="fill-rule:nonzero;fill:rgb(75%,75%,75%);fill-opacity:1;stroke-width:0.79701;stroke-linecap:butt;stroke-linejoin:miter;stroke:rgb(0%,0%,0%);stroke-opacity:1;stroke-miterlimit:10;" d="M 314.80425 -0.0009225 C 314.80425 1.651421 313.464406 2.987359 311.815969 2.987359 C 310.163625 2.987359 308.827688 1.651421 308.827688 -0.0009225 C 308.827688 -1.64936 310.163625 -2.989204 311.815969 -2.989204 C 313.464406 -2.989204 314.80425 -1.64936 314.80425 -0.0009225 Z M 314.80425 -0.0009225 " transform="matrix(1,0,0,-1,4.602,31.38189)"/>
<path style="fill-rule:nonzero;fill:rgb(75%,75%,75%);fill-opacity:1;stroke-width:0.79701;stroke-linecap:butt;stroke-linejoin:miter;stroke:rgb(0%,0%,0%);stroke-opacity:1;stroke-miterlimit:10;" d="M 300.628469 24.66314 C 300.628469 26.311577 299.292531 27.651421 297.640188 27.651421 C 295.99175 27.651421 294.651906 26.311577 294.651906 24.66314 C 294.651906 23.010796 295.99175 21.670952 297.640188 21.670952 C 299.292531 21.670952 300.628469 23.010796 300.628469 24.66314 Z M 300.628469 24.66314 " transform="matrix(1,0,0,-1,4.602,31.38189)"/>
<path style=" stroke:none;fill-rule:nonzero;fill:rgb(75%,75%,75%);fill-opacity:1;" d="M 305.230469 56.042969 C 305.230469 54.394531 303.894531 53.054688 302.242188 53.054688 C 300.59375 53.054688 299.253906 54.394531 299.253906 56.042969 C 299.253906 57.695312 300.59375 59.03125 302.242188 59.03125 C 303.894531 59.03125 305.230469 57.695312 305.230469 56.042969 Z M 305.230469 56.042969 "/>
<g clip-path="url(#clip5)" clip-rule="nonzero">
<path style="fill:none;stroke-width:0.79701;stroke-linecap:butt;stroke-linejoin:miter;stroke:rgb(0%,0%,0%);stroke-opacity:1;stroke-miterlimit:10;" d="M 300.628469 -24.661079 C 300.628469 -23.012641 299.292531 -21.672798 297.640188 -21.672798 C 295.99175 -21.672798 294.651906 -23.012641 294.651906 -24.661079 C 294.651906 -26.313423 295.99175 -27.64936 297.640188 -27.64936 C 299.292531 -27.64936 300.628469 -26.313423 300.628469 -24.661079 Z M 300.628469 -24.661079 " transform="matrix(1,0,0,-1,4.602,31.38189)"/>
</g>
<path style="fill-rule:nonzero;fill:rgb(75%,75%,75%);fill-opacity:1;stroke-width:0.79701;stroke-linecap:butt;stroke-linejoin:miter;stroke:rgb(0%,0%,0%);stroke-opacity:1;stroke-miterlimit:10;" d="M 371.495656 -0.0009225 C 371.495656 1.651421 370.159719 2.987359 368.507375 2.987359 C 366.858938 2.987359 365.519094 1.651421 365.519094 -0.0009225 C 365.519094 -1.64936 366.858938 -2.989204 368.507375 -2.989204 C 370.159719 -2.989204 371.495656 -1.64936 371.495656 -0.0009225 Z M 371.495656 -0.0009225 " transform="matrix(1,0,0,-1,4.602,31.38189)"/>
<path style=" stroke:none;fill-rule:nonzero;fill:rgb(75%,75%,75%);fill-opacity:1;" d="M 390.273438 6.71875 C 390.273438 5.070312 388.933594 3.730469 387.285156 3.730469 C 385.632812 3.730469 384.296875 5.070312 384.296875 6.71875 C 384.296875 8.371094 385.632812 9.710938 387.285156 9.710938 C 388.933594 9.710938 390.273438 8.371094 390.273438 6.71875 Z M 390.273438 6.71875 "/>
<g clip-path="url(#clip6)" clip-rule="nonzero">
<path style="fill:none;stroke-width:0.79701;stroke-linecap:butt;stroke-linejoin:miter;stroke:rgb(0%,0%,0%);stroke-opacity:1;stroke-miterlimit:10;" d="M 385.671438 24.66314 C 385.671438 26.311577 384.331594 27.651421 382.683156 27.651421 C 381.030813 27.651421 379.694875 26.311577 379.694875 24.66314 C 379.694875 23.010796 381.030813 21.670952 382.683156 21.670952 C 384.331594 21.670952 385.671438 23.010796 385.671438 24.66314 Z M 385.671438 24.66314 " transform="matrix(1,0,0,-1,4.602,31.38189)"/>
</g>
<path style=" stroke:none;fill-rule:nonzero;fill:rgb(75%,75%,75%);fill-opacity:1;" d="M 390.273438 56.042969 C 390.273438 54.394531 388.933594 53.054688 387.285156 53.054688 C 385.632812 53.054688 384.296875 54.394531 384.296875 56.042969 C 384.296875 57.695312 385.632812 59.03125 387.285156 59.03125 C 388.933594 59.03125 390.273438 57.695312 390.273438 56.042969 Z M 390.273438 56.042969 "/>
<g clip-path="url(#clip7)" clip-rule="nonzero">
<path style="fill:none;stroke-width:0.79701;stroke-linecap:butt;stroke-linejoin:miter;stroke:rgb(0%,0%,0%);stroke-opacity:1;stroke-miterlimit:10;" d="M 385.671438 -24.661079 C 385.671438 -23.012641 384.331594 -21.672798 382.683156 -21.672798 C 381.030813 -21.672798 379.694875 -23.012641 379.694875 -24.661079 C 379.694875 -26.313423 381.030813 -27.64936 382.683156 -27.64936 C 384.331594 -27.64936 385.671438 -26.313423 385.671438 -24.661079 Z M 385.671438 -24.661079 " transform="matrix(1,0,0,-1,4.602,31.38189)"/>
</g>
</g>
</svg>
