<?xml version="1.0" encoding="UTF-8"?>
<svg xmlns="http://www.w3.org/2000/svg" xmlns:xlink="http://www.w3.org/1999/xlink" width="181.04pt" height="110.4143pt" viewBox="0 0 181.04 110.4143" version="1.1">
<g id="surface1">
<path style="fill:none;stroke-width:0.79701;stroke-linecap:butt;stroke-linejoin:miter;stroke:rgb(0%,0%,0%);stroke-opacity:1;stroke-miterlimit:10;" d="M 0.000625 -0.00072625 L 174.57875 -0.00072625 " transform="matrix(1,0,0,-1,2.89,107.25318)"/>
<path style=" stroke:none;fill-rule:nonzero;fill:rgb(0%,0%,0%);fill-opacity:1;" d="M 180.058594 107.253906 L 175.914062 105.179688 L 177.46875 107.253906 L 175.914062 109.324219 "/>
<path style="fill:none;stroke-width:0.79701;stroke-linecap:butt;stroke-linejoin:miter;stroke:rgb(0%,0%,0%);stroke-opacity:1;stroke-miterlimit:10;" d="M 0.000625 -0.00072625 L 0.000625 103.710211 " transform="matrix(1,0,0,-1,2.89,107.25318)"/>
<path style=" stroke:none;fill-rule:nonzero;fill:rgb(0%,0%,0%);fill-opacity:1;" d="M 2.890625 0.953125 L 0.816406 5.097656 L 2.890625 3.542969 L 4.960938 5.097656 "/>
<path style="fill:none;stroke-width:0.3985;stroke-linecap:butt;stroke-linejoin:miter;stroke:rgb(50%,50%,50%);stroke-opacity:1;stroke-miterlimit:10;" d="M 14.1725 -0.00072625 L 14.1725 99.214117 " transform="matrix(1,0,0,-1,2.89,107.25318)"/>
<path style="fill:none;stroke-width:0.3985;stroke-linecap:butt;stroke-linejoin:miter;stroke:rgb(50%,50%,50%);stroke-opacity:1;stroke-miterlimit:10;" d="M 28.348281 -0.00072625 L 28.348281 99.214117 " transform="matrix(1,0,0,-1,2.89,107.25318)"/>
<path style="fill:none;stroke-width:0.3985;stroke-linecap:butt;stroke-linejoin:miter;stroke:rgb(50%,50%,50%);stroke-opacity:1;stroke-miterlimit:10;" d="M 42.520156 -0.00072625 L 42.520156 99.214117 " transform="matrix(1,0,0,-1,2.89,107.25318)"/>
<path style="fill:none;stroke-width:0.3985;stroke-linecap:butt;stroke-linejoin:miter;stroke:rgb(50%,50%,50%);stroke-opacity:1;stroke-miterlimit:10;" d="M 56.692031 -0.00072625 L 56.692031 99.214117 " transform="matrix(1,0,0,-1,2.89,107.25318)"/>
<path style="fill:none;stroke-width:0.3985;stroke-linecap:butt;stroke-linejoin:miter;stroke:rgb(50%,50%,50%);stroke-opacity:1;stroke-miterlimit:10;" d="M 70.867812 -0.00072625 L 70.867812 99.214117 " transform="matrix(1,0,0,-1,2.89,107.25318)"/>
<path style="fill:none;stroke-width:0.3985;stroke-linecap:butt;stroke-linejoin:miter;stroke:rgb(50%,50%,50%);stroke-opacity:1;stroke-miterlimit:10;" d="M 85.039687 -0.00072625 L 85.039687 99.214117 " transform="matrix(1,0,0,-1,2.89,107.25318)"/>
<path style="fill:none;stroke-width:0.3985;stroke-linecap:butt;stroke-linejoin:miter;stroke:rgb(50%,50%,50%);stroke-opacity:1;stroke-miterlimit:10;" d="M 99.215469 -0.00072625 L 99.215469 99.214117 " transform="matrix(1,0,0,-1,2.89,107.25318)"/>
<path style="fill:none;stroke-width:0.3985;stroke-linecap:butt;stroke-linejoin:miter;stroke:rgb(50%,50%,50%);stroke-opacity:1;stroke-miterlimit:10;" d="M 113.387344 -0.00072625 L 113.387344 99.214117 " transform="matrix(1,0,0,-1,2.89,107.25318)"/>
<path style="fill:none;stroke-width:0.3985;stroke-linecap:butt;stroke-linejoin:miter;stroke:rgb(50%,50%,50%);stroke-opacity:1;stroke-miterlimit:10;" d="M 127.559219 -0.00072625 L 127.559219 99.214117 " transform="matrix(1,0,0,-1,2.89,107.25318)"/>
<path style="fill:none;stroke-width:0.3985;stroke-linecap:butt;stroke-linejoin:miter;stroke:rgb(50%,50%,50%);stroke-opacity:1;stroke-miterlimit:10;" d="M 141.735 -0.00072625 L 141.735 99.214117 " transform="matrix(1,0,0,-1,2.89,107.25318)"/>
<path style="fill:none;stroke-width:0.3985;stroke-linecap:butt;stroke-linejoin:miter;stroke:rgb(50%,50%,50%);stroke-opacity:1;stroke-miterlimit:10;" d="M 155.906875 -0.00072625 L 155.906875 99.214117 " transform="matrix(1,0,0,-1,2.89,107.25318)"/>
<path style="fill:none;stroke-width:0.3985;stroke-linecap:butt;stroke-linejoin:miter;stroke:rgb(50%,50%,50%);stroke-opacity:1;stroke-miterlimit:10;" d="M 170.082656 -0.00072625 L 170.082656 99.214117 " transform="matrix(1,0,0,-1,2.89,107.25318)"/>
<path style="fill:none;stroke-width:0.3985;stroke-linecap:butt;stroke-linejoin:miter;stroke:rgb(50%,50%,50%);stroke-opacity:1;stroke-miterlimit:10;" d="M 0.000625 24.803961 L 170.082656 24.803961 " transform="matrix(1,0,0,-1,2.89,107.25318)"/>
<path style="fill:none;stroke-width:0.3985;stroke-linecap:butt;stroke-linejoin:miter;stroke:rgb(50%,50%,50%);stroke-opacity:1;stroke-miterlimit:10;" d="M 0.000625 49.608649 L 170.082656 49.608649 " transform="matrix(1,0,0,-1,2.89,107.25318)"/>
<path style="fill:none;stroke-width:0.3985;stroke-linecap:butt;stroke-linejoin:miter;stroke:rgb(50%,50%,50%);stroke-opacity:1;stroke-miterlimit:10;" d="M 0.000625 74.40943 L 170.082656 74.40943 " transform="matrix(1,0,0,-1,2.89,107.25318)"/>
<path style="fill:none;stroke-width:0.3985;stroke-linecap:butt;stroke-linejoin:miter;stroke:rgb(50%,50%,50%);stroke-opacity:1;stroke-miterlimit:10;" d="M 0.000625 99.214117 L 170.082656 99.214117 " transform="matrix(1,0,0,-1,2.89,107.25318)"/>
</g>
</svg>
